<mxfile host="app.diagrams.net" agent="Mozilla/5.0 (X11; Linux x86_64) AppleWebKit/537.36 (KHTML, like Gecko) Chrome/131.0.0.0 Safari/537.36" version="25.0.1">
  <diagram name="PÃ¡gina-1" id="bAw9fzppdBrY8vLapZxk">
    <mxGraphModel dx="1348" dy="759" grid="1" gridSize="10" guides="1" tooltips="1" connect="1" arrows="1" fold="1" page="1" pageScale="1" pageWidth="827" pageHeight="1169" math="0" shadow="0">
      <root>
        <mxCell id="0" />
        <mxCell id="1" parent="0" />
        <mxCell id="b7-VyF0SgWxOTYahhtlN-1" value="Amigo" style="shape=rectangle;whiteSpace=wrap;verticalAlign=top;" vertex="1" parent="1">
          <mxGeometry x="180" y="150" width="120" height="100" as="geometry" />
        </mxCell>
        <mxCell id="b7-VyF0SgWxOTYahhtlN-2" value="- nome: String" vertex="1" parent="b7-VyF0SgWxOTYahhtlN-1">
          <mxGeometry y="20" width="120" height="20" as="geometry" />
        </mxCell>
        <mxCell id="b7-VyF0SgWxOTYahhtlN-3" value="- telefone: String" vertex="1" parent="b7-VyF0SgWxOTYahhtlN-1">
          <mxGeometry y="40" width="120" height="20" as="geometry" />
        </mxCell>
        <mxCell id="b7-VyF0SgWxOTYahhtlN-4" value="- email: String" vertex="1" parent="b7-VyF0SgWxOTYahhtlN-1">
          <mxGeometry y="60" width="120" height="20" as="geometry" />
        </mxCell>
        <mxCell id="b7-VyF0SgWxOTYahhtlN-5" value="Livro" style="shape=rectangle;whiteSpace=wrap;verticalAlign=top;" vertex="1" parent="1">
          <mxGeometry x="360" y="150" width="180" height="150" as="geometry" />
        </mxCell>
        <mxCell id="b7-VyF0SgWxOTYahhtlN-6" value="- titulo: String" vertex="1" parent="b7-VyF0SgWxOTYahhtlN-5">
          <mxGeometry y="21.428571428571427" width="180" height="21.428571428571427" as="geometry" />
        </mxCell>
        <mxCell id="b7-VyF0SgWxOTYahhtlN-7" value="- resumo: String" vertex="1" parent="b7-VyF0SgWxOTYahhtlN-5">
          <mxGeometry y="42.857142857142854" width="180" height="21.428571428571427" as="geometry" />
        </mxCell>
        <mxCell id="b7-VyF0SgWxOTYahhtlN-8" value="- autor: String" vertex="1" parent="b7-VyF0SgWxOTYahhtlN-5">
          <mxGeometry y="64.28571428571428" width="180" height="21.428571428571427" as="geometry" />
        </mxCell>
        <mxCell id="b7-VyF0SgWxOTYahhtlN-9" value="- personagemPrincipal: String" vertex="1" parent="b7-VyF0SgWxOTYahhtlN-5">
          <mxGeometry y="85.71428571428571" width="180" height="21.428571428571427" as="geometry" />
        </mxCell>
        <mxCell id="b7-VyF0SgWxOTYahhtlN-10" value="- genero: String" vertex="1" parent="b7-VyF0SgWxOTYahhtlN-5">
          <mxGeometry y="107.14285714285714" width="180" height="21.428571428571427" as="geometry" />
        </mxCell>
        <mxCell id="b7-VyF0SgWxOTYahhtlN-11" value="- faixaEtaria: String" vertex="1" parent="b7-VyF0SgWxOTYahhtlN-5">
          <mxGeometry y="128.57142857142856" width="180" height="21.428571428571427" as="geometry" />
        </mxCell>
        <mxCell id="b7-VyF0SgWxOTYahhtlN-12" value="Emprestimo" style="shape=rectangle;whiteSpace=wrap;verticalAlign=top;" vertex="1" parent="1">
          <mxGeometry x="280" y="340" width="140" height="70" as="geometry" />
        </mxCell>
        <mxCell id="b7-VyF0SgWxOTYahhtlN-13" value="- dataEmprestimo: Date" vertex="1" parent="b7-VyF0SgWxOTYahhtlN-12">
          <mxGeometry y="23.333333333333336" width="140" height="23.333333333333336" as="geometry" />
        </mxCell>
        <mxCell id="b7-VyF0SgWxOTYahhtlN-14" style="edgeStyle=elbowEdgeStyle;" edge="1" parent="1" source="b7-VyF0SgWxOTYahhtlN-1" target="b7-VyF0SgWxOTYahhtlN-12">
          <mxGeometry relative="1" as="geometry" />
        </mxCell>
        <mxCell id="b7-VyF0SgWxOTYahhtlN-15" style="edgeStyle=elbowEdgeStyle;" edge="1" parent="1" source="b7-VyF0SgWxOTYahhtlN-5" target="b7-VyF0SgWxOTYahhtlN-12">
          <mxGeometry relative="1" as="geometry" />
        </mxCell>
      </root>
    </mxGraphModel>
  </diagram>
</mxfile>
